<?xml version="1.0" encoding="UTF-8"?>
<svg width="752pt" height="752pt" version="1.1" viewBox="0 0 752 752" xmlns="http://www.w3.org/2000/svg">
 <g>
  <path d="m537.02 393.52c-3.3164-3.3164-7.5781-4.7344-11.84-3.3164-3.3164 0.94531-6.1562 2.3672-8.9961 3.7891-14.68 8.0508-28.414 17.051-41.676 26.992-7.5781 5.6836-14.207 12.312-23.207 16.102-15.156 5.6836-30.781 8.0508-46.883 10.418-14.207 1.8945-27.941 3.3164-42.148 5.2109-3.3164 0.47266-5.6836-0.47266-6.1562-3.7891-0.47266-3.3164 1.4219-4.7344 4.2617-5.2109 14.207-2.3672 28.414-4.7344 42.148-7.1055 10.418-1.8945 20.836-3.3164 30.781-5.6836 7.5781-1.8945 12.785-10.418 11.367-17.996-1.4219-7.5781-8.5234-13.262-16.102-12.785-18.469 1.4219-36.938 2.3672-54.934 3.3164-9.9453 0.47266-19.418 0.94531-29.363-1.4219-25.102-5.2031-49.727-3.7852-72.461 9.4766-1.8945 0.94531-3.3164 1.4219-4.7344-0.47266-3.3164-3.7891-8.0508-5.2109-12.785-4.7344-9.4727 0.94531-19.418 2.3672-28.887 3.7891-8.0508 1.4219-14.68 9.9453-13.262 17.523 2.8398 21.312 5.6836 43.098 8.9961 64.406 1.4219 10.891 10.418 16.574 21.312 14.68 6.1562-0.94531 12.312-1.4219 18.469-2.3672 6.6289-0.94531 13.734-1.4219 17.523-8.0508 1.4219-2.3672 2.8398-2.8398 5.2109-2.8398h4.2617l111.77 0.47266c16.574 0 33.152-5.2109 46.883-14.68l83.352-59.199c1.4219-0.94531 2.8398-1.8945 4.2617-2.8398 3.3164-2.3672 6.1562-5.6836 7.1055-9.4727-0.003906-5.2109-0.47656-10.422-4.2656-14.211zm-289.36 98.031c-5.6836 0-9.4727-3.7891-9.4727-9.4727 0-5.2109 3.7891-9.4727 9.4727-9.9453 5.2109 0 9.9453 4.2617 9.9453 9.4727-0.47266 5.6836-4.2617 9.9453-9.9453 9.9453z"/>
  <path d="m384.05 322.01h-0.94531c-3.7891-7.1055-8.0508-14.207-11.84-21.312-0.94531-1.8945-1.8945-4.2617-4.7344-4.2617s-3.3164 1.8945-4.7344 3.7891c-2.3672 3.7891-3.3164 8.9961-6.6289 10.891-3.3164 1.8945-8.5234 0.47266-12.785 0.47266h-16.574c-1.4219 0-2.3672 0-3.3164-1.8945-5.6836-14.207-8.5234-28.887-0.94531-43.57 14.207-27.469 50.672-29.363 68.195-4.2617 0.47266 0.47266 0.94531 1.4219 1.4219 2.3672h0.94531c5.6836-8.9961 13.262-15.629 23.68-18.469 22.73-6.1562 46.41 9.4727 49.727 33.152 1.4219 10.891-0.94531 20.836-5.2109 30.781-0.47266 1.4219-1.8945 1.8945-2.8398 1.8945h-29.836c-1.8945 0-2.8398-0.94531-3.3164-2.8398-3.3164-9.4727-7.1055-18.941-10.418-28.414-0.94531-2.3672-1.4219-4.7344-4.2617-5.2109-2.8398-0.47266-3.7891 2.3672-5.2109 4.2617-6.1562 13.262-12.785 26.52-18.941 39.781-0.48047 1.4258-0.48047 2.3711-1.4297 2.8438z"/>
  <path d="m366.05 318.22c0-0.47266 0.94531-0.47266 0.94531 0 4.2617 8.0508 8.5234 15.156 12.785 22.73 0.94531 1.8945 1.8945 4.2617 4.7344 3.7891 2.8398 0 3.3164-2.3672 4.2617-4.2617 5.6836-12.312 11.84-25.102 17.996-37.887 0-0.47266 0.94531-0.47266 0.94531 0 2.3672 6.1562 4.2617 11.367 6.1562 17.051 0.94531 3.3164 3.3164 4.7344 6.6289 4.7344h29.363c0.47266 0 0.47266 0 0.47266 0.47266 0 1.4219-0.94531 1.8945-1.8945 2.8398-15.629 19.418-35.047 34.57-54.934 48.777-1.8945 1.4219-3.7891 1.4219-6.1562 0-20.836-15.156-40.727-30.781-56.828-51.148 0 0 0-0.47266-0.47266-0.47266 0-0.47266 0-0.94531 0.47266-0.94531h22.73c6.6367 0.48047 10.898 0.48047 12.793-5.6797z"/>
 </g>
</svg>
